# xmcd
#
# Track frame offsets:
#	150
#	17489
#	72100
#	105456
#	130498
#	154314
#	190543
#	244391
#	279993
#
# Disc length: 4360 seconds
#
# Revision: 1
# Processed by: cddbd v1.5.2PL0 Copyright (c) Steve Scherf et al.
# Submitted via: audiograbber 1.83.01
#
DISCID=74110609
DTITLE=Traumzeit-Verlag - Sensuality
DYEAR=1900
DGENRE=
TTITLE0=Song for the new World
TTITLE1=Shaman´s Journey
TTITLE2=The Voice of Tibet
TTITLE3=Sensuality
TTITLE4=The rhythm of metal
TTITLE5=Sun song
TTITLE6=The big bells of peace
TTITLE7=The ancient being
TTITLE8=Planet sound
EXTD=The singing bowls of Tibet and India
EXTT0=
EXTT1=
EXTT2=
EXTT3=
EXTT4=
EXTT5=
EXTT6=
EXTT7=
EXTT8=
PLAYORDER=
